<?xml version="1.0" encoding="UTF-8"?>
<svg width="161px" height="55px" viewBox="0 0 161 55" version="1.1" xmlns="http://www.w3.org/2000/svg" xmlns:xlink="http://www.w3.org/1999/xlink">
    <title>编组 11备份 2</title>
    <defs>
        <polygon id="path-1" points="0 0 47.79708 0 47.79708 28.3558349 0 28.3558349"></polygon>
    </defs>
    <g id="页面-1" stroke="none" stroke-width="1" fill="none" fill-rule="evenodd">
        <g id="编组-11备份-2" transform="translate(0.500000, 0.000000)">
            <g id="编组-3备份" transform="translate(60.920857, 3.905183)" fill="#000000" fill-rule="nonzero">
                <g id="编组-2">
                    <path d="M8.03538308,44.0152457 L9.33874135,42.69993 L2.82195001,37.2832209 L9.33874135,31.9262988 L8.03538308,30.5990257 L0,37.3071357 L8.03538308,44.0152457 Z M14.4206428,46.3947713 L22.6234297,26.9280992 L20.6384988,26.9280992 L12.4357119,46.3947713 L14.4206428,46.3947713 Z M30.6946851,43.8239271 L30.6946851,35.29829 L35.9559478,35.29829 L35.9559478,33.5644647 L30.6946851,33.5644647 L30.6946851,31.4599596 C30.6946851,29.4989435 31.6313493,28.5184355 33.5046777,28.5184355 C34.2938671,28.5184355 35.2345171,28.6340238 36.3266277,28.8652005 L36.3266277,28.8652005 L36.3266277,27.0715882 C35.3222048,26.8802696 34.4054696,26.7846103 33.5764222,26.7846103 C30.2442891,26.7846103 28.5782226,28.3829181 28.5782226,31.5795338 L28.5782226,31.5795338 L28.5782226,33.5644647 L24.7159774,33.5644647 L24.7159774,35.29829 L28.5782226,35.29829 L28.5782226,43.8239271 L30.6946851,43.8239271 Z M43.7282677,44.0391605 C44.4935423,44.0391605 45.2329092,43.989338 45.9463683,43.8896928 C46.6598274,43.7900477 47.2995491,43.6605091 47.8655334,43.5010768 L47.8655334,43.5010768 L47.8655334,41.7911665 C47.6104419,41.862911 47.3334284,41.9286767 47.0344931,41.9884638 C46.7355577,42.0482509 46.422672,42.1020593 46.095836,42.1498889 C45.7689999,42.1977186 45.4302065,42.2355837 45.0794557,42.2634844 C44.7287048,42.291385 44.377954,42.3053353 44.0272031,42.3053353 C42.7358023,42.3053353 41.7473226,41.9765064 41.0617641,41.3188486 C40.3762056,40.6611907 40.0334264,39.7185478 40.0334264,38.4909198 L40.0334264,38.4909198 L48.4634042,38.4909198 C48.4793474,38.3155444 48.4913048,38.1282116 48.4992764,37.9289213 C48.5072481,37.7296311 48.5112339,37.4825111 48.5112339,37.1875616 C48.5112339,36.3345993 48.3976384,35.563346 48.1704475,34.8738017 C47.9432566,34.1842574 47.608449,33.5983441 47.1660246,33.1160617 C46.7236003,32.6337792 46.1795379,32.2611065 45.5338374,31.9980433 C44.888137,31.7349802 44.1467773,31.6034486 43.3097582,31.6034486 C42.4488243,31.6034486 41.6795639,31.7708524 41.001977,32.1056601 C40.3243902,32.4404677 39.7524272,32.8928566 39.286088,33.4628267 C38.8197488,34.0327968 38.4650121,34.6944405 38.221878,35.4477576 C37.9787439,36.2010748 37.8571768,37.0002287 37.8571768,37.8452194 C37.8571768,38.8177559 37.9707723,39.6886543 38.1979632,40.4579147 C38.4251541,41.227175 38.7759049,41.8768613 39.2502157,42.4069733 C39.7245265,42.9370854 40.3323618,43.3416446 41.0737215,43.620651 C41.8150813,43.8996574 42.69993,44.0391605 43.7282677,44.0391605 Z M46.3469417,36.8886262 L40.0334264,36.8886262 C40.0732845,36.3545283 40.1769154,35.8642743 40.3443192,35.4178641 C40.511723,34.9714539 40.7309423,34.5888166 41.001977,34.2699522 C41.2730118,33.9510878 41.595862,33.7039679 41.9705277,33.5285925 C42.3451934,33.3532171 42.7597171,33.2655294 43.2140989,33.2655294 C43.7402252,33.2655294 44.2025785,33.35521 44.6011591,33.5345712 C44.9997396,33.7139324 45.3325543,33.9630452 45.5996032,34.2819097 C45.8666522,34.6007741 46.0639495,34.9814184 46.1914953,35.4238428 C46.3190411,35.8662672 46.3708565,36.3545283 46.3469417,36.8886262 L46.3469417,36.8886262 Z M56.4270428,44.0391605 C57.1923174,44.0391605 57.9316842,43.989338 58.6451433,43.8896928 C59.3586024,43.7900477 59.9983242,43.6605091 60.5643085,43.5010768 L60.5643085,43.5010768 L60.5643085,41.7911665 C60.3092169,41.862911 60.0322035,41.9286767 59.7332681,41.9884638 C59.4343327,42.0482509 59.121447,42.1020593 58.794611,42.1498889 C58.467775,42.1977186 58.1289816,42.2355837 57.7782307,42.2634844 C57.4274799,42.291385 57.076729,42.3053353 56.7259782,42.3053353 C55.4345773,42.3053353 54.4460976,41.9765064 53.7605392,41.3188486 C53.0749807,40.6611907 52.7322015,39.7185478 52.7322015,38.4909198 L52.7322015,38.4909198 L61.1621792,38.4909198 C61.1781225,38.3155444 61.1900799,38.1282116 61.1980515,37.9289213 C61.2060231,37.7296311 61.2100089,37.4825111 61.2100089,37.1875616 C61.2100089,36.3345993 61.0964135,35.563346 60.8692226,34.8738017 C60.6420317,34.1842574 60.307224,33.5983441 59.8647997,33.1160617 C59.4223753,32.6337792 58.8783129,32.2611065 58.2326125,31.9980433 C57.5869121,31.7349802 56.8455523,31.6034486 56.0085332,31.6034486 C55.1475993,31.6034486 54.378339,31.7708524 53.7007521,32.1056601 C53.0231652,32.4404677 52.4512022,32.8928566 51.984863,33.4628267 C51.5185238,34.0327968 51.1637871,34.6944405 50.920653,35.4477576 C50.6775189,36.2010748 50.5559519,37.0002287 50.5559519,37.8452194 C50.5559519,38.8177559 50.6695473,39.6886543 50.8967382,40.4579147 C51.1239291,41.227175 51.4746799,41.8768613 51.9489908,42.4069733 C52.4233016,42.9370854 53.0311368,43.3416446 53.7724966,43.620651 C54.5138563,43.8996574 55.3987051,44.0391605 56.4270428,44.0391605 Z M59.0457167,36.8886262 L52.7322015,36.8886262 C52.7720595,36.3545283 52.8756904,35.8642743 53.0430943,35.4178641 C53.2104981,34.9714539 53.4297173,34.5888166 53.7007521,34.2699522 C53.9717868,33.9510878 54.2946371,33.7039679 54.6693027,33.5285925 C55.0439684,33.3532171 55.4584921,33.2655294 55.9128739,33.2655294 C56.4390002,33.2655294 56.9013536,33.35521 57.2999341,33.5345712 C57.6985146,33.7139324 58.0313293,33.9630452 58.2983783,34.2819097 C58.5654272,34.6007741 58.7627246,34.9814184 58.8902703,35.4238428 C59.0178161,35.8662672 59.0696316,36.3545283 59.0457167,36.8886262 L59.0457167,36.8886262 Z M67.3202481,44.0391605 C68.1094375,44.0391605 68.8428257,43.8358845 69.5204125,43.4293324 C70.1979994,43.0227802 70.8277566,42.3970088 71.4096841,41.5520182 L71.4096841,41.5520182 L71.4814286,43.8239271 L73.3467854,43.8239271 L73.3467854,26.9280992 L71.2542377,26.9280992 L71.2542377,31.9741285 C70.8955153,31.8704976 70.5308141,31.7947673 70.1601342,31.7469376 C69.7894544,31.6991079 69.4127958,31.6751931 69.0301585,31.6751931 C68.1453098,31.6751931 67.34217,31.8166892 66.6207393,32.0996814 C65.8993086,32.3826735 65.2815088,32.7971973 64.76734,33.3432526 C64.2531711,33.8893079 63.8565835,34.5589231 63.5775771,35.3520983 C63.2985708,36.1452735 63.1590676,37.0520442 63.1590676,38.0724103 C63.1590676,38.9652306 63.2467553,39.7783349 63.4221307,40.511723 C63.5975062,41.2451112 63.8585764,41.8728755 64.2053414,42.3950159 C64.5521065,42.9171564 64.9865592,43.3217156 65.5086997,43.6086936 C66.0308402,43.8956716 66.6346896,44.0391605 67.3202481,44.0391605 Z M67.7387577,42.2575057 C66.9575399,42.2575057 66.3536904,41.9007761 65.9272092,41.187317 C65.5007281,40.4738579 65.2874875,39.3917118 65.2874875,37.9408787 C65.2874875,36.3784431 65.604359,35.2305313 66.238102,34.4971431 C66.871845,33.763755 67.7547009,33.3970609 68.8866695,33.3970609 C69.2932216,33.3970609 69.7037596,33.4389119 70.1182833,33.5226138 C70.532807,33.6063157 70.9114585,33.7278827 71.2542377,33.8873149 L71.2542377,33.8873149 L71.2542377,39.4594705 C70.6085373,40.3841773 69.9927304,41.0816932 69.4068171,41.5520182 C68.8209037,42.0223432 68.2648839,42.2575057 67.7387577,42.2575057 Z M80.9756164,44.0391605 C81.3502821,44.0391605 81.7329194,44.0112599 82.1235283,43.9554586 C82.5141372,43.8996574 82.8947815,43.8119696 83.2654614,43.6923955 C83.6361413,43.5728213 83.9848992,43.4213607 84.3117353,43.2380137 C84.6385713,43.0546667 84.9255492,42.8334545 85.1726692,42.5743772 C85.4197891,42.3152998 85.6150935,42.0183574 85.7585825,41.6835497 C85.9020715,41.3487421 85.973816,40.9700906 85.973816,40.5475953 C85.973816,40.1011851 85.9080502,39.7026046 85.7765186,39.3518537 C85.6449871,39.0011029 85.4277607,38.6862243 85.1248395,38.4072179 C84.8219183,38.1282116 84.4273236,37.875113 83.9410554,37.6479221 C83.4547872,37.4207312 82.8569164,37.2035048 82.1474431,36.9962429 C81.493771,36.8049243 80.963659,36.627556 80.5571068,36.4641379 C80.1505547,36.3007199 79.8336832,36.1373019 79.6064923,35.9738839 C79.3793014,35.8104659 79.223855,35.6410692 79.1401531,35.4656938 C79.0564512,35.2903183 79.0146003,35.0950139 79.0146003,34.8797804 C79.0146003,34.6645469 79.0624299,34.4632638 79.1580893,34.2759309 C79.2537486,34.0885981 79.4111879,33.9251801 79.6304072,33.7856769 C79.8496264,33.6461737 80.1366044,33.5365641 80.4913411,33.456848 C80.8460777,33.3771319 81.2825234,33.3372738 81.800678,33.3372738 C82.231145,33.3372738 82.7393351,33.375139 83.3252485,33.4508693 C83.9111618,33.5265996 84.5309545,33.6441808 85.1846266,33.803613 L85.1846266,33.803613 L85.1846266,31.9502137 C84.562841,31.8226679 83.9649702,31.7329873 83.3910143,31.6811718 C82.8170583,31.6293564 82.2949179,31.6034486 81.8245929,31.6034486 C80.8679996,31.6034486 80.0708386,31.7170441 79.4331098,31.944235 C78.795381,32.1714259 78.2891837,32.4564109 77.9145181,32.7991902 C77.5398524,33.1419694 77.2747964,33.5126493 77.11935,33.9112298 C76.9639036,34.3098103 76.8861804,34.6765044 76.8861804,35.011312 C76.8861804,35.521495 76.9818397,35.9639194 77.1731583,36.3385851 C77.364477,36.7132508 77.6275401,37.0400868 77.9623477,37.3190931 C78.2971554,37.5980995 78.693743,37.8392407 79.1521106,38.0425168 C79.6104781,38.2457928 80.1106967,38.427147 80.6527662,38.5865792 C81.3781827,38.8018126 81.9501457,38.9931313 82.3686553,39.1605351 C82.7871648,39.3279389 83.0960647,39.489364 83.295355,39.6448104 C83.4946452,39.8002568 83.6321555,39.9636748 83.7078858,40.1350644 C83.7836161,40.3064541 83.8214812,40.4997656 83.8214812,40.7149991 C83.8214812,41.2172105 83.5823329,41.6038336 83.1040363,41.8748684 C82.6257397,42.1459031 81.8883658,42.2814205 80.8919145,42.2814205 C80.206356,42.2814205 79.5168117,42.229605 78.8232816,42.1259741 C78.1297515,42.0223432 77.4322357,41.8708826 76.730734,41.6715923 L76.730734,41.6715923 L76.730734,43.5847788 C77.384406,43.744211 78.0520283,43.8597993 78.733601,43.9315438 C79.4151737,44.0032883 80.1625121,44.0391605 80.9756164,44.0391605 Z M91.0437601,44.0152457 L99.0791431,37.3071357 L91.0437601,30.5990257 L89.7523592,31.9262988 L96.2691505,37.3310506 L89.7523592,42.69993 L91.0437601,44.0152457 Z" id="&lt;/feeds&gt;"></path>
                    <path d="M6.17002629,17.2067206 C6.77586867,17.2067206 7.36377492,17.156898 7.93374505,17.0572529 C8.50371518,16.9576078 9.05973499,16.8041543 9.60180448,16.5968924 L9.60180448,16.5968924 L9.60180448,14.6597912 C9.10756465,14.9148827 8.5953887,15.1062013 8.06527662,15.2337471 C7.53516454,15.3612929 6.98711634,15.4250657 6.42113201,15.4250657 C5.16958921,15.4250657 4.19107406,15.0643504 3.48558656,14.3429196 C2.78009906,13.6214889 2.42735531,12.535357 2.42735531,11.084524 C2.42735531,10.3909939 2.53098624,9.7692083 2.7382481,9.21916719 C2.94550997,8.66912609 3.22850213,8.20278689 3.58722459,7.8201496 C3.94594705,7.43751231 4.36246368,7.14455564 4.83677449,6.94127958 C5.31108529,6.73800352 5.81528964,6.63636549 6.34938752,6.63636549 C6.92334346,6.63636549 7.47936327,6.69814547 8.01744696,6.82170543 C8.55553064,6.94526538 9.08364982,7.14256274 9.60180448,7.41359748 L9.60180448,7.41359748 L9.60180448,5.42866654 C9.10756465,5.22937629 8.58940999,5.08588731 8.04734049,4.99819959 C7.505271,4.91051188 6.92334346,4.86666803 6.30155786,4.86666803 C5.40873752,4.86666803 4.59164747,5.01613572 3.85028773,5.3150711 C3.10892798,5.61400648 2.47119916,6.03849472 1.93710128,6.58853583 C1.40300339,7.13857693 0.988479664,7.80022058 0.693530087,8.57346677 C0.39858051,9.34671296 0.251105721,10.2076469 0.251105721,11.1562685 C0.251105721,13.1332278 0.763281676,14.6358763 1.78763359,15.664214 C2.8119855,16.6925518 4.27278307,17.2067206 6.17002629,17.2067206 Z M15.0543859,17.0393168 L15.0543859,9.07567821 C15.460938,8.5973816 15.8196604,8.19880109 16.1305532,7.87993668 C16.441446,7.56107227 16.728424,7.30797365 16.9914871,7.12064081 C17.2545503,6.93330797 17.5076489,6.8017764 17.750783,6.7260461 C17.9939171,6.65031581 18.2549874,6.61245066 18.5339937,6.61245066 C19.1796941,6.61245066 19.6759269,6.84163445 20.0226919,7.30000204 C20.369457,7.75836962 20.5428395,8.44990681 20.5428395,9.37461359 L20.5428395,9.37461359 L20.5428395,17.0393168 L22.6234297,17.0393168 L22.6234297,9.20720978 C22.6234297,7.7404335 22.2965937,6.6423442 21.6429217,5.91294186 C20.9892496,5.18353953 20.0645429,4.81883836 18.8688013,4.81883836 C18.5180505,4.81883836 18.1792571,4.85471061 17.852421,4.9264551 C17.525585,4.99819959 17.2047277,5.11777375 16.8898491,5.28517756 C16.5749705,5.45258137 16.2600919,5.66980775 15.9452133,5.93685669 C15.6303347,6.20390564 15.3094774,6.53273456 14.9826414,6.92334346 L14.9826414,6.92334346 L15.0543859,5.03407184 L15.0543859,0.143488984 L12.9737956,0.143488984 L12.9737956,17.0393168 L15.0543859,17.0393168 Z M29.223923,17.2545503 C29.9652827,17.2545503 30.6727631,17.1110613 31.3463642,16.8240833 C32.0199653,16.5371054 32.6836018,16.0707662 33.3372738,15.4250657 L33.3372738,15.4250657 L33.3851035,17.0393168 L35.2504603,17.0393168 L35.2504603,8.76478541 C35.2504603,8.09517016 35.1428436,7.51324261 34.9276101,7.01900278 C34.7123766,6.52476295 34.4034767,6.11422502 34.0009104,5.787389 C33.5983441,5.46055299 33.1060971,5.21741887 32.5241696,5.05798667 C31.9422421,4.89855447 31.28857,4.81883836 30.5631535,4.81883836 C30.164573,4.81883836 29.7699783,4.84076029 29.3793694,4.88460415 C28.9887605,4.928448 28.6140948,4.98624218 28.2553723,5.05798667 C27.8966499,5.12973116 27.5558635,5.21144017 27.2330133,5.30311368 C26.9101631,5.3947872 26.6172064,5.48845362 26.3541433,5.58411294 L26.3541433,5.58411294 L26.3541433,7.46142714 C27.055645,7.18242079 27.7352248,6.96718731 28.3928826,6.81572672 C29.0505405,6.66426612 29.7181628,6.58853583 30.3957497,6.58853583 C31.3284281,6.58853583 32.0219582,6.8017764 32.4763399,7.22825755 C32.9307217,7.65473869 33.1579126,8.22271592 33.1579126,8.93218923 L33.1579126,8.93218923 L33.1579126,9.98444177 L30.6707702,9.98444177 C28.917016,9.98444177 27.5917358,10.3252281 26.6949296,11.0068008 C25.7981235,11.6883735 25.3497204,12.6310164 25.3497204,13.8347295 C25.3497204,14.3209977 25.4234578,14.7713937 25.5709326,15.1859174 C25.7184074,15.6004412 25.9495841,15.9611565 26.2644627,16.2680635 C26.5793413,16.5749705 26.9799147,16.8161117 27.4661829,16.9914871 C27.9524512,17.1668626 28.5383645,17.2545503 29.223923,17.2545503 Z M29.5587306,15.5207251 C29.1920365,15.5207251 28.8811437,15.4728954 28.6260522,15.3772361 C28.3709607,15.2815767 28.1636988,15.1520381 28.0042666,14.9886201 C27.8448344,14.8252021 27.7292461,14.6378692 27.6575016,14.4266216 C27.5857571,14.2153739 27.5498848,13.9941617 27.5498848,13.762985 C27.5498848,13.4281774 27.607679,13.1272491 27.7232674,12.8602002 C27.8388557,12.5931512 28.016224,12.3639674 28.2553723,12.1726488 C28.4945207,11.9813301 28.8014276,11.8338553 29.1760933,11.7302244 C29.550759,11.6265935 29.9971692,11.574778 30.5153238,11.574778 L30.5153238,11.574778 L33.1579126,11.574778 L33.1579126,13.7031979 C32.4723541,14.3329551 31.820675,14.7933156 31.2028752,15.0842794 C30.5850754,15.3752432 30.0370272,15.5207251 29.5587306,15.5207251 Z M43.190184,3.27633179 C43.4213607,3.27633179 43.6365942,3.23448084 43.8358845,3.15077893 C44.0351747,3.06707702 44.2085573,2.94949577 44.356032,2.79803518 C44.5035068,2.64657459 44.6190952,2.47119916 44.7027971,2.27190891 C44.786499,2.07261865 44.8283499,1.86137098 44.8283499,1.6381659 C44.8283499,1.4069892 44.786499,1.19374863 44.7027971,0.998444177 C44.6190952,0.803139727 44.5035068,0.629757206 44.356032,0.478296612 C44.2085573,0.326836018 44.0351747,0.209254768 43.8358845,0.125552861 C43.6365942,0.0418509535 43.4213607,0 43.190184,0 C42.9590074,0 42.7437739,0.0418509535 42.5444836,0.125552861 C42.3451934,0.209254768 42.1718108,0.326836018 42.0243361,0.478296612 C41.8768613,0.629757206 41.7612729,0.803139727 41.677571,0.998444177 C41.5938691,1.19374863 41.5520182,1.4069892 41.5520182,1.6381659 C41.5520182,1.86137098 41.5938691,2.07261865 41.677571,2.27190891 C41.7612729,2.47119916 41.8768613,2.64657459 42.0243361,2.79803518 C42.1718108,2.94949577 42.3451934,3.06707702 42.5444836,3.15077893 C42.7437739,3.23448084 42.9590074,3.27633179 43.190184,3.27633179 Z M48.140554,17.0393168 L48.140554,15.3054916 L44.5652868,15.3054916 L44.5652868,5.03407184 L38.9094294,5.03407184 L38.9094294,6.75593964 L42.4607817,6.75593964 L42.4607817,15.3054916 L38.5148347,15.3054916 L38.5148347,17.0393168 L48.140554,17.0393168 Z M53.150711,17.0393168 L53.150711,9.07567821 C53.5333483,8.5973816 53.8781204,8.19880109 54.1850274,7.87993668 C54.4919344,7.56107227 54.7769195,7.30797365 55.0399826,7.12064081 C55.3030457,6.93330797 55.5561444,6.8017764 55.7992785,6.7260461 C56.0424126,6.65031581 56.2915254,6.61245066 56.5466169,6.61245066 C57.240147,6.61245066 57.7622875,6.83764865 58.1130383,7.28804462 C58.4637892,7.7384406 58.6391646,8.43396359 58.6391646,9.37461359 L58.6391646,9.37461359 L58.6391646,17.0393168 L60.7197549,17.0393168 L60.7197549,9.20720978 C60.7197549,7.7404335 60.4028834,6.6423442 59.7691404,5.91294186 C59.1353973,5.18353953 58.2007261,4.81883836 56.9651265,4.81883836 C56.6143756,4.81883836 56.2755822,4.85271771 55.9487462,4.92047639 C55.6219102,4.98823508 55.3010528,5.10581633 54.9861742,5.27322015 C54.6712956,5.44062396 54.3504383,5.66183614 54.0236023,5.93685669 C53.6967663,6.21187725 53.3579729,6.55664939 53.007222,6.97117312 L53.007222,6.97117312 L52.9235201,5.03407184 L51.0701207,5.03407184 L51.0701207,17.0393168 L53.150711,17.0393168 Z" id="chain"></path>
                </g>
            </g>
            <g id="编组">
                <path d="M24.036564,54.6725638 C23.8977781,54.6725638 23.7614632,54.6355817 23.6424451,54.5654887 L0.391079575,41.1302774 C0.150325253,40.9920681 8.23654899e-06,40.732452 8.23654899e-06,40.453233 C8.23654899e-06,40.1757437 0.149007405,39.9166219 0.388938072,39.7768476 L11.9757855,33.0433042 C12.0983454,32.9737878 12.2330953,32.9380412 12.3690807,32.9380412 C12.6468171,32.9380412 12.905939,33.0868756 13.0453837,33.3264768 C13.2621697,33.6989335 13.1353269,34.1788772 12.7627054,34.396075 L2.34322401,40.4512563 L24.0347519,52.9853892 L28.1895966,50.5636791 L11.9777623,41.2037474 C11.6043995,40.9880322 11.475827,40.5085003 11.6912127,40.1347257 C11.8302457,39.8935595 12.0901088,39.7438191 12.3694925,39.7438191 C12.5044072,39.7438191 12.6380864,39.7789068 12.7561161,39.845211 L30.139023,49.8820223 C30.380601,50.0220436 30.5302786,50.2814126 30.5302786,50.559149 C30.5322358,50.8345792 30.3838956,51.0951012 30.1428942,51.2360286 L24.4307652,54.5663124 C24.3116647,54.6358288 24.1753498,54.6725638 24.036564,54.6725638" id="Fill-1" fill="#0057FF"></path>
                <path d="M24.036564,54.2607364 C23.9724013,54.2607364 23.9086504,54.2443457 23.8512416,54.2105758 L0.597158027,40.7737172 C0.482752364,40.7080719 0.411835678,40.585512 0.411835678,40.453233 C0.411835678,40.3220248 0.481763978,40.1993826 0.596169641,40.1328313 L12.1826876,33.3994526 C12.361256,33.2980607 12.586608,33.356952 12.6894001,33.533626 C12.7921922,33.7102176 12.7323949,33.9370522 12.5552267,34.0403385 L1.521793,40.452327 L24.0355756,53.4615441 L29.0103687,50.5620318 L12.183676,40.8471048 C12.0065078,40.7447245 11.9457221,40.5178899 12.04802,40.34031 C12.1499062,40.1637183 12.3757523,40.1038386 12.5543207,40.2042422 L29.9331093,50.2386649 C30.0479268,50.3052986 30.1184419,50.42687 30.1184419,50.559149 C30.11942,50.6913456 30.0489152,50.8139054 29.9350037,50.8805391 L24.2233689,54.2105758 C24.1653836,54.2443457 24.1012209,54.2607364 24.036564,54.2607364" id="Fill-3" fill="#0057FF"></path>
                <path d="M41.3033931,44.627516 C41.1660075,44.627516 41.0307634,44.5915223 40.9124042,44.5232413 L29.3622917,37.8544371 C29.1814171,37.7501624 29.0516915,37.5813956 28.997495,37.379353 C28.9432985,37.1775576 28.9708909,36.9665372 29.0753304,36.7854155 C29.2150222,36.5442493 29.4747206,36.3949207 29.7536102,36.3949207 C29.8875365,36.3949207 30.0205567,36.4294318 30.1384217,36.4946653 L41.3017458,42.9405884 L45.4536254,40.5278562 L29.3585029,31.235876 C29.1775459,31.1316013 29.0478203,30.9629167 28.9936238,30.7608742 C28.9394273,30.5589964 28.9671021,30.3480584 29.0714592,30.1669367 C29.2111511,29.9256881 29.4711789,29.7763595 29.750645,29.7763595 C29.8852302,29.7763595 30.0185799,29.8112001 30.1361979,29.8770101 L47.4058522,39.8475996 C47.6474301,39.9876209 47.7970882,40.2469075 47.7970882,40.5246439 C47.7970882,40.8022156 47.6482538,41.0615845 47.408735,41.2016059 L41.6956176,44.521594 C41.5798941,44.5902044 41.4431674,44.627516 41.3033931,44.627516" id="Fill-5" fill="#0057FF"></path>
                <path d="M41.3033931,44.2156885 C41.2387362,44.2156885 41.1749853,44.1992978 41.1180708,44.166434 L29.5682055,37.4977122 C29.3906255,37.3954143 29.3298397,37.1685797 29.4321377,36.9909997 C29.5344356,36.8144081 29.7593758,36.7555168 29.9388502,36.8549319 L41.3024047,43.4164962 L46.2752211,40.5266207 L29.5644166,30.8792334 C29.3867543,30.7769355 29.3259686,30.5501009 29.4282665,30.3725209 C29.5305644,30.1958469 29.757399,30.1369556 29.9350613,30.2363708 L47.1999384,40.2042422 C47.3147559,40.2707935 47.3852608,40.3924473 47.3852608,40.5246439 C47.3852608,40.6569229 47.3147559,40.7794827 47.2009268,40.8461164 L41.4887155,44.165528 C41.4318009,44.1992978 41.3670617,44.2156885 41.3033931,44.2156885" id="Fill-7" fill="#0057FF"></path>
                <g>
                    <mask id="mask-2" fill="white">
                        <use xlink:href="#path-1"></use>
                    </mask>
                    <g id="Clip-10"></g>
                    <path d="M24.034719,26.6686602 L28.189646,24.2469501 L11.9777293,14.886936 C11.7359043,14.7461734 11.5864933,14.4870516 11.5864933,14.2098917 C11.5864933,13.9318258 11.7355748,13.6722098 11.9754231,13.5326003 L23.5303951,6.81833044 C23.6478483,6.74922579 23.7843279,6.71216132 23.9231961,6.71216132 C24.0595934,6.71216132 24.194508,6.74799031 24.3132791,6.81585947 L41.3017376,16.6237771 L45.4536171,14.2110448 L23.7616774,1.68720761 L2.34319107,14.1345273 L24.034719,26.6686602 Z M24.036531,28.3558349 C23.8977452,28.3558349 23.7615127,28.3188528 23.6424122,28.2487597 L0.391128994,14.8135484 C0.150292307,14.6753391 -2.47096465e-05,14.4157231 -2.47096465e-05,14.1365041 C-2.47096465e-05,13.8590147 0.149056824,13.5998929 0.388987492,13.460201 L23.3673114,0.106119695 C23.4847646,0.0370974159 23.6211619,-4.9419293e-05 23.7600301,-4.9419293e-05 C23.8965097,-4.9419293e-05 24.031342,0.0358619336 24.150113,0.103731096 L47.4058439,13.5308706 C47.6474219,13.670892 47.79708,13.9301785 47.79708,14.207915 C47.79708,14.4854043 47.6482456,14.7447732 47.4088091,14.8848769 L41.6956094,18.204865 C41.5796387,18.2736402 41.442912,18.3110341 41.3033849,18.3110341 C41.1662464,18.3110341 41.0310846,18.2748757 40.9124783,18.2065123 L23.9247611,8.39933598 L13.9300385,14.2068442 L30.1389901,23.5652934 C30.380568,23.7053147 30.5302261,23.9646012 30.5302261,24.2423377 C30.5322853,24.5178502 30.3838626,24.7783723 30.1429436,24.9192996 L24.4308146,28.2495834 C24.3116318,28.3190999 24.1753169,28.3558349 24.036531,28.3558349 L24.036531,28.3558349 Z" id="Fill-9" fill="#0057FF" mask="url(#mask-2)"></path>
                </g>
                <path d="M1.52183418,14.1355486 L24.0356168,27.1447657 L29.0103275,24.2452534 L12.1836348,14.5303264 C12.0693115,14.4636927 11.9983125,14.3421213 11.9983125,14.2098423 C11.9983125,14.0776457 12.0683231,13.9550858 12.1827288,13.8884522 L23.7373713,7.17434702 C23.8521888,7.10680732 23.9941046,7.10779571 24.108922,7.173441 L41.3024706,17.0997178 L46.275287,14.2098423 L23.7610102,1.2112504 L1.52183418,14.1355486 Z M24.0366051,27.943958 C23.9723601,27.943958 23.9086915,27.9275673 23.8512828,27.8937974 L0.597116844,14.4569388 C0.482793546,14.3912935 0.411794495,14.2687336 0.411794495,14.136537 C0.411794495,14.0052464 0.481805161,13.8826866 0.596210824,13.8160529 L23.5742053,0.462218647 C23.6891052,0.394678947 23.8309385,0.395667333 23.9458384,0.461230262 L47.199922,13.8874638 C47.3148218,13.9540975 47.3852443,14.0756689 47.3852443,14.2079479 C47.3852443,14.3401445 47.3148218,14.4627867 47.2009104,14.529338 L41.488699,17.8487496 C41.3747875,17.9162893 41.2319658,17.9153833 41.1180543,17.849738 L23.9240939,7.92337877 L13.1083522,14.2079479 L29.9330681,23.9218865 C30.0479679,23.9885202 30.1183904,24.110174 30.1183904,24.2423706 C30.1193788,24.3746496 30.0489563,24.4972094 29.9350449,24.5637607 L24.2233277,27.8937974 C24.1654248,27.9275673 24.1012621,27.943958 24.0366051,27.943958 L24.0366051,27.943958 Z" id="Fill-11" fill="#0057FF"></path>
                <path d="M0.782472139,41.2357299 C0.351041711,41.2357299 0,40.8846882 0,40.4532577 L0,14.1364958 C0,13.7050654 0.351041711,13.3540237 0.782472139,13.3540237 C1.21390257,13.3540237 1.56494428,13.7050654 1.56494428,14.1364958 L1.56494428,40.4532577 C1.56494428,40.8846882 1.21390257,41.2357299 0.782472139,41.2357299" id="Fill-13" fill="#0057FF"></path>
                <path d="M0.782472139,40.8239024 C0.577876266,40.8239024 0.411827442,40.6578536 0.411827442,40.4532577 L0.411827442,14.1364958 C0.411827442,13.9319 0.577876266,13.7658511 0.782472139,13.7658511 C0.987068012,13.7658511 1.15311684,13.9319 1.15311684,14.1364958 L1.15311684,40.4532577 C1.15311684,40.6578536 0.987068012,40.8239024 0.782472139,40.8239024" id="Fill-15" fill="#0057FF"></path>
                <path d="M12.3689819,41.3081209 C11.9375514,41.3081209 11.5865097,40.9570792 11.5865097,40.5256488 L11.5865097,14.2088869 C11.5865097,13.7774564 11.9375514,13.4264147 12.3689819,13.4264147 C12.8004123,13.4264147 13.151454,13.7774564 13.151454,14.2088869 L13.151454,40.5256488 C13.151454,40.9570792 12.8004123,41.3081209 12.3689819,41.3081209" id="Fill-17" fill="#0057FF"></path>
                <path d="M12.3689819,40.8962935 C12.164386,40.8962935 11.9983372,40.7302446 11.9983372,40.5256488 L11.9983372,14.2088869 C11.9983372,14.004291 12.164386,13.8382422 12.3689819,13.8382422 C12.5735778,13.8382422 12.7396266,14.004291 12.7396266,14.2088869 L12.7396266,40.5256488 C12.7396266,40.7302446 12.5735778,40.8962935 12.3689819,40.8962935" id="Fill-19" fill="#0057FF"></path>
                <path d="M29.7477787,51.3425519 C29.3163483,51.3425519 28.9653066,50.9915102 28.9653066,50.5600797 L28.9653066,24.2433178 C28.9653066,23.8118874 29.3163483,23.4608457 29.7477787,23.4608457 C30.1792091,23.4608457 30.5302508,23.8118874 30.5302508,24.2433178 L30.5302508,50.5600797 C30.5302508,50.9915102 30.1792091,51.3425519 29.7477787,51.3425519" id="Fill-21" fill="#0057FF"></path>
                <path d="M29.7477787,50.9307244 C29.5431828,50.9307244 29.377134,50.7646756 29.377134,50.5600797 L29.377134,24.2433178 C29.377134,24.0387219 29.5431828,23.8726731 29.7477787,23.8726731 C29.9523746,23.8726731 30.1184234,24.0387219 30.1184234,24.2433178 L30.1184234,50.5600797 C30.1184234,50.7646756 29.9523746,50.9307244 29.7477787,50.9307244" id="Fill-23" fill="#0057FF"></path>
                <path d="M24.036564,54.6725638 C23.6051335,54.6725638 23.2540918,54.3215221 23.2540918,53.8900917 L23.2540918,27.5733298 C23.2540918,27.1418994 23.6051335,26.7908577 24.036564,26.7908577 C24.4679944,26.7908577 24.8190361,27.1418994 24.8190361,27.5733298 L24.8190361,53.8900917 C24.8190361,54.3215221 24.4679944,54.6725638 24.036564,54.6725638" id="Fill-25" fill="#0057FF"></path>
                <path d="M24.036564,54.2607364 C23.8319681,54.2607364 23.6659193,54.0946876 23.6659193,53.8900917 L23.6659193,27.5733298 C23.6659193,27.3687339 23.8319681,27.2026851 24.036564,27.2026851 C24.2411598,27.2026851 24.4072087,27.3687339 24.4072087,27.5733298 L24.4072087,53.8900917 C24.4072087,54.0946876 24.2411598,54.2607364 24.036564,54.2607364" id="Fill-27" fill="#0057FF"></path>
                <path d="M41.3033931,44.627516 C40.8719627,44.627516 40.520921,44.2764743 40.520921,43.8450438 L40.520921,17.5282819 C40.520921,17.0968515 40.8719627,16.7458098 41.3033931,16.7458098 C41.7348236,16.7458098 42.0858653,17.0968515 42.0858653,17.5282819 L42.0858653,43.8450438 C42.0858653,44.2764743 41.7348236,44.627516 41.3033931,44.627516" id="Fill-29" fill="#0057FF"></path>
                <path d="M41.3033931,44.2156885 C41.0987973,44.2156885 40.9327484,44.0496397 40.9327484,43.8450438 L40.9327484,17.5282819 C40.9327484,17.3236861 41.0987973,17.1576372 41.3033931,17.1576372 C41.507989,17.1576372 41.6740378,17.3236861 41.6740378,17.5282819 L41.6740378,43.8450438 C41.6740378,44.0496397 41.507989,44.2156885 41.3033931,44.2156885" id="Fill-31" fill="#0057FF"></path>
                <path d="M23.884542,21.6407825 C23.4517113,21.6387234 23.1020698,21.286858 23.1030561,20.856416 L23.1411935,7.49269787 C23.1421818,7.06250293 23.4932235,6.71236724 23.9236656,6.71236724 C24.3574023,6.71442637 24.7071261,7.06629174 24.7061398,7.49673378 L24.6680025,20.8604519 C24.6670141,21.2906468 24.3159724,21.6407825 23.8855304,21.6407825 L23.884542,21.6407825 Z" id="Fill-33" fill="#0057FF"></path>
                <path d="M23.8855057,21.2289551 L23.8845173,21.2289551 C23.6799214,21.2279667 23.5143668,21.0620002 23.5148599,20.857322 L23.5529962,7.49385099 C23.5534904,7.28925512 23.7194568,7.12419468 23.9236409,7.12419468 L23.9246293,7.12419468 C24.1292251,7.12518306 24.2947798,7.29114952 24.2942867,7.49582776 L24.2561504,20.8592988 C24.2556562,21.0638947 24.0896897,21.2289551 23.8855057,21.2289551" id="Fill-35" fill="#0057FF"></path>
                <path d="M47.0146079,41.3081209 C46.5831774,41.3081209 46.2321357,40.9570792 46.2321357,40.5256488 L46.2321357,14.2088869 C46.2321357,13.7774564 46.5831774,13.4264147 47.0146079,13.4264147 C47.4460383,13.4264147 47.79708,13.7774564 47.79708,14.2088869 L47.79708,40.5256488 C47.79708,40.9570792 47.4460383,41.3081209 47.0146079,41.3081209" id="Fill-37" fill="#0057FF"></path>
                <path d="M47.0146079,40.8962935 C46.810012,40.8962935 46.6439632,40.7302446 46.6439632,40.5256488 L46.6439632,14.2088869 C46.6439632,14.004291 46.810012,13.8382422 47.0146079,13.8382422 C47.2192037,13.8382422 47.3852526,14.004291 47.3852526,14.2088869 L47.3852526,40.5256488 C47.3852526,40.7302446 47.2192037,40.8962935 47.0146079,40.8962935" id="Fill-39" fill="#0057FF"></path>
                <path d="M23.760516,8.27730328 C23.3290856,8.27730328 22.9780439,7.92626157 22.9780439,7.49483114 L22.9780439,0.782702763 C22.9780439,0.351272335 23.3290856,0.000230623367 23.760516,0.000230623367 C24.1919465,0.000230623367 24.5429882,0.351272335 24.5429882,0.782702763 L24.5429882,7.49483114 C24.5429882,7.92626157 24.1919465,8.27730328 23.760516,8.27730328" id="Fill-41" fill="#0057FF"></path>
                <path d="M23.760516,7.86547584 C23.5559202,7.86547584 23.3898713,7.69942701 23.3898713,7.49483114 L23.3898713,0.782702763 C23.3898713,0.578024524 23.5559202,0.412058065 23.760516,0.412058065 C23.9651119,0.412058065 24.1311607,0.578024524 24.1311607,0.782702763 L24.1311607,7.49483114 C24.1311607,7.69942701 23.9651119,7.86547584 23.760516,7.86547584" id="Fill-43" fill="#0057FF"></path>
            </g>
        </g>
    </g>
</svg>